<svg width="430" height="244" viewBox="0 0 430 244" fill="none" xmlns="http://www.w3.org/2000/svg">
<path d="M35.89 169.135C35.89 169.135 44.05 139.855 50.57 129.955C57.09 120.055 69.21 109.035 69.21 109.035C69.21 109.035 68.94 154.185 35.89 169.135Z" fill="#4083CA"/>
<path d="M36.48 168.635C39.2277 164.05 41.7117 159.312 43.92 154.445C44.8525 149.211 46.207 144.061 47.97 139.045C47.97 138.955 48.13 139.045 48.11 139.105C47.03 143.725 45.77 148.315 44.63 152.925C47.92 145.795 51.05 138.585 54.97 131.845C55.8755 128.59 57.1435 125.447 58.75 122.475C58.75 122.385 58.94 122.475 58.9 122.525C57.9066 124.803 57.055 127.141 56.35 129.525C58.1996 126.52 60.2721 123.659 62.55 120.965C62.69 120.795 62.98 120.965 62.84 121.155C57.59 127.855 53.97 135.465 50.53 143.155C54.2334 139.135 57.6517 134.861 60.76 130.365C60.76 130.365 60.86 130.365 60.83 130.415C57.5769 135.458 53.8967 140.212 49.83 144.625C47.32 150.275 44.83 155.945 41.83 161.315C47.83 156.265 52.41 149.715 56.97 143.405C57.07 143.265 57.29 143.405 57.19 143.555C52.64 150.485 47.92 157.005 41.36 162.135C40.031 164.499 38.5687 166.786 36.98 168.985C36.924 169.012 36.8618 169.023 36.7999 169.018C36.7379 169.013 36.6785 168.992 36.6276 168.956C36.5767 168.921 36.5361 168.872 36.5102 168.816C36.4843 168.759 36.4738 168.697 36.48 168.635Z" fill="#263238"/>
<path d="M34.34 169.175C34.34 169.175 49.01 142.175 44.75 115.995C40.49 89.8149 35.93 80.4949 35.93 80.4949C35.93 80.4949 12.87 121.215 34.34 169.175Z" fill="#4083CA"/>
<path d="M28.32 126.725C29.5641 134.147 31.4581 141.445 33.98 148.535C33.98 138.925 34.21 129.315 34.47 119.715C32.819 113.884 31.8888 107.872 31.7 101.815C31.7 101.645 31.96 101.655 31.97 101.815C32.4289 107.007 33.2881 112.155 34.54 117.215C34.76 109.288 35.0167 101.362 35.31 93.4349C35.317 93.4125 35.3309 93.3929 35.3498 93.379C35.3687 93.3651 35.3915 93.3577 35.415 93.3577C35.4384 93.3577 35.4613 93.3651 35.4802 93.379C35.499 93.3929 35.513 93.4125 35.52 93.4349C35.52 105.815 35.52 118.195 35.44 130.575C37.2255 125.788 38.6364 120.87 39.66 115.865C39.66 115.815 39.75 115.865 39.75 115.865C39.159 121.631 37.6991 127.275 35.42 132.605C35.36 140.525 35.28 148.435 35.1 156.345C37.58 147.955 40.21 139.815 40.95 130.955C40.9566 130.935 40.9693 130.917 40.9864 130.905C41.0034 130.893 41.0239 130.886 41.045 130.886C41.0661 130.886 41.0866 130.893 41.1036 130.905C41.1207 130.917 41.1334 130.935 41.14 130.955C40.94 140.765 38.41 150.715 35.14 159.955C35.1035 160.042 35.0489 160.12 34.98 160.185C34.9 163.075 34.82 165.975 34.72 168.865C34.72 168.95 34.6863 169.031 34.6263 169.091C34.5663 169.151 34.4849 169.185 34.4 169.185C34.3151 169.185 34.2337 169.151 34.1737 169.091C34.1137 169.031 34.08 168.95 34.08 168.865C33.9733 162.945 33.9267 157.025 33.94 151.105C30.7553 143.338 28.8213 135.117 28.21 126.745C28.21 126.675 28.31 126.655 28.32 126.725Z" fill="#263238"/>
<path d="M29.33 122.555C29.8322 124.905 30.1664 127.288 30.33 129.685C30.33 129.765 30.21 129.775 30.19 129.685C29.6203 127.347 29.2192 124.971 28.99 122.575C28.99 122.405 29.29 122.375 29.33 122.555Z" fill="#263238"/>
<path d="M37.9 102.815C37.9 102.735 38.04 102.765 38.04 102.815C38.0181 104.48 37.7726 106.135 37.31 107.735C37.3061 107.748 37.2996 107.76 37.2909 107.771C37.2822 107.782 37.2716 107.79 37.2595 107.797C37.2474 107.803 37.2342 107.807 37.2205 107.809C37.2069 107.81 37.1931 107.809 37.18 107.805C37.1669 107.801 37.1546 107.794 37.144 107.786C37.1334 107.777 37.1246 107.766 37.1181 107.754C37.1116 107.742 37.1075 107.729 37.1061 107.715C37.1047 107.702 37.1061 107.688 37.11 107.675C37.43 106.075 37.63 104.445 37.9 102.815Z" fill="#263238"/>
<path d="M28.99 169.175C28.99 169.175 29.58 140.955 21.5 126.955C13.42 112.955 0 105.805 0 105.805C0 105.805 5.41 155.515 28.99 169.175Z" fill="#4083CA"/>
<path d="M14.21 145.075C17.4815 150.001 21.1611 154.644 25.21 158.955C23.6 153.195 21.72 147.525 19.61 141.955C15.08 137.955 10.61 133.865 7.79999 128.425C7.78938 128.406 7.78658 128.384 7.79221 128.364C7.79783 128.343 7.81142 128.325 7.82999 128.315C7.84855 128.304 7.87057 128.301 7.8912 128.307C7.91183 128.313 7.92938 128.326 7.93999 128.345C10.94 133.165 14.94 137.015 19.13 140.725C15.8889 132.331 12.1317 124.145 7.87999 116.215C7.86113 116.174 7.85816 116.128 7.87165 116.085C7.88514 116.042 7.91413 116.006 7.95293 115.984C7.99173 115.961 8.03755 115.954 8.0814 115.963C8.12526 115.973 8.16398 115.998 8.18999 116.035C10.7605 120.188 13.0974 124.481 15.19 128.895C14.44 125.895 13.83 122.805 13.05 119.815C13.0552 119.802 13.0642 119.791 13.0757 119.783C13.0873 119.775 13.101 119.771 13.115 119.771C13.129 119.771 13.1427 119.775 13.1542 119.783C13.1658 119.791 13.1748 119.802 13.18 119.815C14.7741 123.664 15.8892 127.694 16.5 131.815C19.3303 138.063 21.7097 144.507 23.62 151.095C23.41 146.875 23.15 142.665 22.71 138.455C22.71 138.375 22.84 138.355 22.85 138.455C23.7536 143.132 24.1658 147.892 24.08 152.655C25.24 156.855 26.2167 161.098 27.01 165.385C27.01 165.495 26.86 165.555 26.83 165.435C26.4 163.635 25.92 161.855 25.43 160.085C25.43 160.085 25.37 160.085 25.34 160.085C20.833 155.736 17.0727 150.675 14.21 145.105V145.075Z" fill="#263238"/>
<path d="M4.87999 122.145C5.77999 123.145 6.61 124.145 7.48 125.145C8.32354 125.992 9.10239 126.901 9.80999 127.865C9.81722 127.875 9.82072 127.886 9.81987 127.898C9.81902 127.91 9.81386 127.922 9.80535 127.93C9.79684 127.939 9.78555 127.944 9.77354 127.945C9.76154 127.946 9.74962 127.942 9.74 127.935C8.72807 127.173 7.82329 126.278 7.05 125.275C6.20082 124.341 5.43146 123.337 4.75 122.275C4.7 122.165 4.81999 122.075 4.87999 122.145Z" fill="#263238"/>
<path d="M52.04 171.245L51.04 184.595L47.95 224.955H21.21L18.14 184.595L17.14 171.245H52.14H52.04Z" fill="#37474F"/>
<path d="M52.04 171.245L51.42 179.355L17.79 180.705L17.07 171.245H52.07H52.04Z" fill="#263238"/>
<path d="M14.69 174.925H54.42V164.685H14.69V174.925Z" fill="#37474F"/>
<path d="M156.76 224.145C159.55 225.145 242.09 226.785 245.19 224.885C245.56 224.695 246.9 197.385 246.9 197.385C246.8 196.995 248.18 194.385 250.29 190.715C256.17 180.445 267.68 162.045 267.68 162.045L218.68 147.235L198.56 187.545L193.43 197.825C193.43 197.825 182.18 202.225 172.36 206.615C166.36 209.305 161.05 211.765 159.82 212.685C156.66 215.145 153.98 223.165 156.76 224.145Z" fill="#FFC4C0"/>
<path d="M156.76 224.145C159.55 225.145 242.09 226.785 245.19 224.885C245.56 224.695 246.9 197.385 246.9 197.385C246.8 196.995 248.18 194.385 250.29 190.715L198.57 187.545L193.44 197.825C193.44 197.825 182.19 202.225 172.37 206.615C166.37 209.305 161.06 211.765 159.83 212.685C156.66 215.145 153.98 223.165 156.76 224.145Z" fill="white"/>
<path d="M156.42 224.455C159.29 225.455 241.93 226.885 245.12 224.945C246.33 224.215 247.79 211.495 246.9 197.385L193.62 196.535C193.62 196.535 162.76 210.175 159.49 212.675C156.22 215.175 153.55 223.435 156.42 224.455Z" fill="#4083CA"/>
<path opacity="0.1" d="M245.12 224.955C243.95 225.655 232.21 225.955 217.62 225.955L245.62 197.405H246.92C247.79 211.495 246.33 224.225 245.12 224.955Z" fill="black"/>
<path d="M157.66 221.165C171.52 221.065 227.43 221.955 241.14 222.915C241.25 222.915 241.25 222.995 241.14 222.995C227.4 223.395 171.5 222.055 157.65 221.395C157.36 221.385 157.37 221.165 157.66 221.165Z" fill="#263238"/>
<path d="M164.86 209.795C166.402 209.78 167.929 210.086 169.346 210.694C170.763 211.302 172.038 212.198 173.09 213.325C175.017 215.326 176.092 217.997 176.09 220.775C176.09 220.855 175.93 220.855 175.92 220.775C175.496 218.029 174.197 215.494 172.214 213.547C170.232 211.601 167.673 210.348 164.92 209.975C164.896 209.983 164.87 209.981 164.848 209.97C164.825 209.958 164.808 209.939 164.8 209.915C164.792 209.891 164.794 209.865 164.805 209.842C164.816 209.82 164.836 209.803 164.86 209.795Z" fill="#263238"/>
<path d="M189.21 197.855C194.75 197.855 201.15 199.935 204.52 204.535C204.65 204.705 204.39 204.895 204.23 204.805C199.426 202.179 194.353 200.077 189.1 198.535C189.023 198.508 188.957 198.454 188.915 198.383C188.874 198.313 188.858 198.23 188.871 198.149C188.884 198.068 188.925 197.994 188.987 197.94C189.049 197.887 189.128 197.856 189.21 197.855Z" fill="#263238"/>
<path d="M184.94 199.445C190.48 199.445 196.88 201.535 200.25 206.125C200.38 206.305 200.12 206.485 199.96 206.395C195.152 203.777 190.08 201.675 184.83 200.125C184.753 200.098 184.687 200.044 184.645 199.973C184.604 199.903 184.588 199.82 184.601 199.739C184.614 199.658 184.655 199.584 184.717 199.53C184.779 199.477 184.858 199.446 184.94 199.445Z" fill="#263238"/>
<path d="M180.63 201.045C186.17 201.045 192.57 203.125 195.94 207.725C196.07 207.905 195.81 208.085 195.65 207.995C190.846 205.369 185.773 203.267 180.52 201.725C180.443 201.698 180.377 201.644 180.335 201.573C180.294 201.503 180.278 201.42 180.291 201.339C180.304 201.258 180.345 201.184 180.407 201.13C180.469 201.077 180.548 201.046 180.63 201.045Z" fill="#263238"/>
<path d="M176.32 202.635C181.86 202.635 188.26 204.725 191.63 209.315C191.76 209.495 191.5 209.675 191.34 209.595C186.534 206.969 181.462 204.864 176.21 203.315C176.133 203.288 176.067 203.234 176.025 203.163C175.984 203.093 175.968 203.01 175.981 202.929C175.994 202.848 176.035 202.774 176.097 202.72C176.159 202.667 176.238 202.636 176.32 202.635Z" fill="#263238"/>
<path d="M237.83 209.695C244.05 209.815 243.83 219.485 237.64 219.355C231.45 219.225 231.6 209.565 237.83 209.695Z" fill="#263238"/>
<path d="M183.81 191.085C186.74 195.005 191.25 197.505 195.16 200.305C195.251 200.36 195.354 200.392 195.46 200.399C195.566 200.407 195.673 200.388 195.77 200.346C195.868 200.304 195.954 200.24 196.022 200.158C196.09 200.076 196.137 199.979 196.16 199.875C196.182 199.879 196.205 199.879 196.227 199.873C196.248 199.868 196.269 199.858 196.286 199.843C196.303 199.829 196.317 199.811 196.326 199.79C196.336 199.77 196.34 199.747 196.34 199.725C196.02 194.629 194.365 189.708 191.54 185.455C189.85 183.005 186.35 180.675 183.54 182.955C180.73 185.235 182.1 188.805 183.81 191.085ZM183.63 186.495C184.29 180.495 189.63 185.195 190.82 187.045C191.571 188.258 192.24 189.521 192.82 190.825C193.959 193.529 194.961 196.289 195.82 199.095C193.99 197.595 192.04 196.275 190.16 194.855C187.86 193.155 183.27 189.815 183.63 186.495Z" fill="#263238"/>
<path d="M216.09 196.525C215.72 192.895 211.6 192.045 208.67 192.525C203.66 193.495 198.993 195.768 195.14 199.115C195.121 199.128 195.106 199.145 195.096 199.165C195.085 199.185 195.08 199.207 195.08 199.23C195.08 199.252 195.085 199.275 195.096 199.295C195.106 199.315 195.121 199.332 195.14 199.345C195.087 199.434 195.055 199.535 195.048 199.639C195.04 199.742 195.056 199.847 195.094 199.943C195.133 200.04 195.193 200.126 195.27 200.196C195.348 200.265 195.44 200.316 195.54 200.345C200.27 201.165 205.23 202.625 210.07 201.965C212.9 201.625 216.44 199.955 216.09 196.525ZM202.98 200.165C200.64 199.825 198.33 199.365 195.98 199.105C198.63 197.825 201.2 196.445 203.98 195.425C205.307 194.918 206.667 194.5 208.05 194.175C210.19 193.715 217.32 194.175 213.49 198.915C211.37 201.505 205.76 200.575 202.98 200.165Z" fill="#263238"/>
<path d="M254.01 190.175L195.9 181.375C195.9 181.375 223.83 125.695 241.12 95.4849C250.74 78.6849 277.04 77.8649 289.83 97.9849C306.92 124.875 320.18 150.075 327.78 164.035L340.97 165.165L338.12 186.705L294.31 196.515C277.53 198.515 265.75 168.645 265.48 169.155C263.35 173.075 254.01 190.175 254.01 190.175Z" fill="#263238"/>
<path d="M265.21 169.285C266.86 165.905 268.15 162.285 269.62 158.845C271.09 155.405 272.47 152.135 273.88 148.775C276.73 141.985 279.68 135.225 282.45 128.405C284 124.575 285.45 120.695 286.88 116.825C286.889 116.808 286.903 116.795 286.921 116.787C286.939 116.78 286.958 116.78 286.976 116.786C286.994 116.792 287.01 116.804 287.02 116.82C287.03 116.837 287.033 116.856 287.03 116.875C285.9 120.525 284.74 124.175 283.51 127.795C283.84 127.175 284.16 126.545 284.51 125.935C285.44 124.265 286.41 122.615 287.37 120.935C287.373 120.926 287.377 120.918 287.384 120.912C287.39 120.905 287.397 120.9 287.406 120.897C287.414 120.893 287.423 120.892 287.433 120.893C287.442 120.894 287.45 120.897 287.458 120.901C287.466 120.906 287.473 120.912 287.477 120.92C287.482 120.928 287.486 120.936 287.487 120.945C287.488 120.954 287.487 120.963 287.484 120.972C287.481 120.981 287.476 120.988 287.47 120.995C286.58 122.645 285.69 124.295 284.76 125.935C284.3 126.745 283.76 127.555 283.31 128.365C279.908 138.55 275.867 148.509 271.21 158.185C269.36 161.975 267.21 165.605 265.35 169.395C265.29 169.515 265.11 169.405 265.21 169.285Z" fill="#37474F"/>
<path d="M252.71 179.845C255.51 175.525 262.19 162.435 264.58 157.915C269.41 148.765 273.83 139.425 278.02 129.965C280.38 124.615 282.59 119.215 284.78 113.795C284.78 113.795 284.85 113.795 284.84 113.795C281.504 123.553 277.676 133.135 273.37 142.505C269.11 151.895 255.37 177.195 252.89 179.935C252.8 180.055 252.64 179.955 252.71 179.845Z" fill="#37474F"/>
<path d="M288.79 121.025C293.79 129.965 298.91 138.845 303.94 147.775C306.48 152.295 309.013 156.815 311.54 161.335C312.72 163.465 313.87 165.615 315.1 167.725C316.154 169.71 317.744 171.359 319.69 172.485C322.021 173.595 324.465 174.45 326.98 175.035C329.8 175.855 332.61 176.745 335.45 177.525C335.476 177.533 335.499 177.551 335.512 177.575C335.525 177.6 335.528 177.628 335.52 177.655C335.512 177.681 335.494 177.704 335.469 177.717C335.445 177.73 335.416 177.733 335.39 177.725C332.86 177.045 330.3 176.465 327.76 175.835C325.419 175.336 323.106 174.715 320.83 173.975C318.82 173.299 317.041 172.068 315.7 170.425C314.337 168.528 313.133 166.521 312.1 164.425C307.08 155.232 302.103 146.022 297.17 136.795C294.36 131.545 291.58 126.285 288.74 121.055C288.73 121.025 288.77 120.955 288.79 121.025Z" fill="#37474F"/>
<path d="M255.33 182.025C251.85 181.385 248.28 181.085 244.77 180.635L234.21 179.265C227.21 178.355 203.28 174.545 201.48 173.945C201.455 173.937 201.434 173.922 201.418 173.902C201.403 173.881 201.394 173.856 201.394 173.83C201.394 173.804 201.403 173.779 201.418 173.758C201.434 173.737 201.455 173.722 201.48 173.715C203.19 173.665 218.84 175.715 222.36 176.265C229.36 177.265 236.36 178.545 243.36 179.725C245.36 180.065 247.36 180.445 249.36 180.795C251.36 181.145 253.36 181.575 255.36 181.795C255.391 181.799 255.418 181.815 255.437 181.839C255.456 181.864 255.464 181.894 255.46 181.925C255.456 181.955 255.44 181.983 255.416 182.002C255.391 182.021 255.361 182.029 255.33 182.025Z" fill="#37474F"/>
<path d="M218.55 236.585C219.55 233.815 272.23 170.215 275.69 169.095C276.08 168.945 297.64 185.745 297.64 185.745C298.51 187.005 341.21 179.955 341.21 179.955L339.41 230.955L262.41 225.955C262.41 225.955 251.74 231.625 242.01 236.195C236.01 239.035 230.73 241.405 229.23 241.725C225.3 242.545 217.48 239.335 218.55 236.585Z" fill="#FFC4C0"/>
<path d="M229.21 241.725C230.71 241.415 236 239.035 241.99 236.195C251.72 231.625 262.39 225.955 262.39 225.955L279.52 227.065L308.27 184.955C302.34 185.745 297.92 186.175 297.64 185.775C297.64 185.775 276.09 168.975 275.69 169.125C272.23 170.245 219.61 233.835 218.55 236.605C217.49 239.375 225.3 242.555 229.21 241.725Z" fill="white"/>
<path d="M218.09 236.645C219.2 233.815 272.09 170.265 275.6 169.115C276.94 168.665 287.53 175.865 297.6 185.745L263.48 226.675C263.48 226.675 233.01 241.155 228.98 242.005C224.95 242.855 216.99 239.485 218.09 236.645Z" fill="#4083CA"/>
<path d="M221.39 237.855C230.51 227.415 266.32 184.465 274.54 173.455C274.61 173.365 274.54 173.315 274.48 173.405C265.21 183.545 229.75 226.785 221.22 237.705C221.04 237.955 221.21 238.075 221.39 237.855Z" fill="#263238"/>
<path d="M234.71 239.815C235.726 238.655 236.49 237.298 236.955 235.828C237.42 234.358 237.575 232.808 237.41 231.275C237.128 228.518 235.8 225.973 233.7 224.165C233.63 224.165 233.54 224.235 233.59 224.295C235.404 226.408 236.483 229.054 236.663 231.833C236.843 234.612 236.116 237.375 234.59 239.705C234.585 239.721 234.585 239.739 234.589 239.755C234.593 239.771 234.603 239.786 234.615 239.798C234.628 239.809 234.643 239.817 234.66 239.82C234.677 239.823 234.694 239.821 234.71 239.815Z" fill="#263238"/>
<path d="M259.67 229.125C263.28 224.915 265.88 218.715 264.6 213.125C264.55 212.915 264.25 212.985 264.21 213.125C263.062 218.479 261.346 223.695 259.09 228.685C259.032 228.762 259.006 228.859 259.019 228.954C259.033 229.05 259.083 229.136 259.16 229.195C259.237 229.253 259.334 229.279 259.429 229.265C259.525 229.252 259.612 229.202 259.67 229.125Z" fill="#263238"/>
<path d="M255.65 231.355C259.26 227.135 261.86 220.945 260.58 215.355C260.53 215.135 260.22 215.215 260.18 215.355C259.043 220.725 257.326 225.955 255.06 230.955C255.007 231.033 254.987 231.129 255.005 231.222C255.023 231.315 255.077 231.397 255.155 231.45C255.233 231.503 255.329 231.523 255.422 231.505C255.515 231.487 255.597 231.433 255.65 231.355Z" fill="#263238"/>
<path d="M251.63 233.575C255.23 229.365 257.84 223.165 256.56 217.575C256.51 217.365 256.2 217.435 256.16 217.575C255.017 222.93 253.3 228.147 251.04 233.135C251.011 233.174 250.99 233.218 250.978 233.264C250.966 233.311 250.964 233.36 250.971 233.408C250.978 233.456 250.994 233.502 251.019 233.543C251.044 233.585 251.076 233.621 251.115 233.65C251.154 233.679 251.198 233.7 251.245 233.712C251.291 233.723 251.34 233.726 251.388 233.719C251.436 233.712 251.482 233.696 251.523 233.671C251.565 233.646 251.601 233.614 251.63 233.575Z" fill="#263238"/>
<path d="M247.61 235.805C251.21 231.585 253.82 225.395 252.54 219.805C252.49 219.585 252.18 219.665 252.14 219.805C250.995 225.157 249.279 230.37 247.02 235.355C246.96 235.433 246.934 235.532 246.947 235.629C246.96 235.727 247.012 235.815 247.09 235.875C247.168 235.935 247.267 235.961 247.364 235.948C247.462 235.934 247.55 235.883 247.61 235.805Z" fill="#263238"/>
<path d="M282.4 184.585C286.4 179.795 278.92 173.585 274.95 178.425C270.98 183.265 278.43 189.385 282.4 184.585Z" fill="#263238"/>
<path d="M267.21 243.195C270.79 242.535 271.3 238.355 270.55 235.475C269.17 230.562 266.521 226.099 262.87 222.535C262.856 222.518 262.838 222.505 262.818 222.495C262.799 222.486 262.777 222.481 262.755 222.481C262.733 222.481 262.711 222.486 262.692 222.495C262.672 222.505 262.654 222.518 262.64 222.535C262.545 222.482 262.439 222.453 262.33 222.45C262.222 222.447 262.114 222.469 262.016 222.516C261.918 222.563 261.833 222.633 261.767 222.72C261.702 222.807 261.658 222.908 261.64 223.015C261.21 227.805 260.16 232.865 261.22 237.635C261.87 240.445 263.83 243.835 267.21 243.195ZM262.5 230.435C262.65 228.075 262.91 225.735 262.98 223.375C264.47 225.905 266.06 228.375 267.3 231.035C267.916 232.314 268.444 233.634 268.88 234.985C269.52 237.085 269.6 244.235 264.61 240.795C261.87 238.955 262.32 233.245 262.51 230.435H262.5Z" fill="#263238"/>
<path d="M270.11 210.625C266.45 213.865 264.33 218.575 261.86 222.695C261.807 222.792 261.779 222.9 261.777 223.011C261.776 223.122 261.801 223.231 261.851 223.329C261.901 223.428 261.975 223.513 262.065 223.576C262.156 223.64 262.26 223.681 262.37 223.695C262.368 223.717 262.372 223.74 262.38 223.76C262.388 223.781 262.4 223.8 262.417 223.816C262.433 223.831 262.453 223.842 262.474 223.849C262.495 223.856 262.518 223.858 262.54 223.855C267.595 223.107 272.362 221.037 276.36 217.855C278.66 215.975 280.7 212.295 278.19 209.645C275.82 207.155 272.21 208.735 270.11 210.625ZM274.68 210.075C280.74 210.235 276.47 215.965 274.68 217.285C273.53 218.118 272.328 218.876 271.08 219.555C268.5 220.995 265.77 222.035 263.08 223.205C264.42 221.255 265.57 219.205 266.84 217.205C268.38 214.835 271.34 209.955 274.68 210.075Z" fill="#263238"/>
<path d="M316.38 167.025C316.38 167.025 382.38 158.165 403.99 163.975C434.12 172.095 437.57 208.285 414.37 222.065C384.97 239.515 282.99 229.785 282.99 229.785L311.45 181.785C311.45 181.785 354.18 173.785 392.45 176.915L315.21 186.495L316.38 167.025Z" fill="#263238"/>
<path d="M309.48 185.035C309.509 184.95 309.533 184.863 309.55 184.775C309.55 184.705 309.55 184.635 309.6 184.565L309.75 184.075C309.849 183.734 309.969 183.4 310.11 183.075C310.24 182.745 310.39 182.425 310.54 182.075C310.702 181.765 310.886 181.468 311.09 181.185C311.09 181.185 311.14 181.185 311.17 181.185H311.22H311.29C311.313 181.179 311.337 181.179 311.36 181.185C316.05 180.435 347.87 176.825 352.6 176.445C357.33 176.065 362.14 175.775 366.91 175.545C376.428 175.046 385.966 175.083 395.48 175.655C396.37 175.705 397.26 175.785 398.15 175.855C398.34 175.795 398.55 175.765 398.74 175.725C399.21 175.625 399.66 175.515 400.13 175.445C401 175.295 401.87 175.195 402.74 175.085C404.55 174.865 406.37 174.735 408.17 174.445C408.28 174.445 408.32 174.605 408.17 174.625C406.35 174.985 404.55 175.485 402.73 175.845L401.15 176.135C404.63 176.485 408.1 176.935 411.57 177.435C411.68 177.435 411.68 177.635 411.57 177.625C406.85 177.115 402.08 176.865 397.33 176.745C392.58 176.625 387.9 176.545 383.18 176.635C373.64 176.825 364.09 177.345 354.56 178.025C349.22 178.405 316.76 182.185 311.41 182.195H311.35C311.302 182.332 311.245 182.465 311.18 182.595C311.02 182.905 310.86 183.215 310.69 183.515C310.52 183.815 310.36 184.105 310.17 184.385C309.98 184.665 309.99 184.665 309.89 184.795L309.75 185.005C309.691 185.072 309.641 185.146 309.6 185.225C309.59 185.245 309.41 185.155 309.48 185.035Z" fill="#37474F"/>
<path d="M297.61 226.795C299.29 224.035 300.75 221.075 302.31 218.225L306.99 209.645C310.11 203.955 321.21 184.785 322.32 183.455C322.39 183.375 322.51 183.455 322.48 183.575C321.93 185.075 314.94 197.775 313.34 200.575C310.13 206.235 306.78 211.765 303.47 217.355C302.53 218.945 301.55 220.515 300.6 222.105C299.65 223.695 298.6 225.235 297.74 226.865C297.69 226.955 297.55 226.895 297.61 226.795Z" fill="#37474F"/>
<path d="M324.05 188.715C326.89 188.095 329.79 187.715 332.65 187.275C335.51 186.835 338.38 186.335 341.25 185.885C346.99 184.965 352.737 184.098 358.49 183.285C369.97 181.675 381.49 180.415 393.01 179.705C399.53 179.305 406.01 179.135 412.57 178.895C412.71 178.895 412.7 179.125 412.57 179.135C400.97 179.195 389.34 180.425 377.8 181.735C366.26 183.045 354.96 184.515 343.57 186.125L333.92 187.515C330.65 187.995 327.38 188.615 324.1 188.925C323.97 188.955 323.92 188.745 324.05 188.715Z" fill="#37474F"/>
<path d="M324.04 106.105C317.72 117.105 292.55 151.155 284.63 152.285C276.39 153.465 246.01 150.865 240.47 144.335C237.76 141.145 242.14 113.755 246.35 115.285C250.56 116.815 276.55 123.095 279.89 122.605C283.23 122.115 310.16 96.0348 320.09 90.4148C337.21 80.7148 327.45 100.165 324.04 106.105Z" fill="#FFC4C0"/>
<path d="M253.03 116.155L246.62 150.095C246.62 150.095 277.05 156.325 286.02 153.705C294.99 151.085 320.07 115.425 327.39 101.325C334.71 87.2249 328.31 83.5149 315.18 92.3249C302.05 101.135 281.01 120.805 278.96 120.895C276.91 120.985 253.03 116.155 253.03 116.155Z" fill="#4083CA"/>
<path d="M318.37 94.9548C317.615 95.6958 317.005 96.5707 316.57 97.5348C317.536 97.1035 318.412 96.4927 319.15 95.7348C319.908 94.9943 320.522 94.1195 320.96 93.1548C319.993 93.5896 319.115 94.1999 318.37 94.9548ZM252.72 146.675C251.662 146.658 250.61 146.841 249.62 147.215C250.608 147.596 251.661 147.783 252.72 147.765C253.782 147.78 254.838 147.594 255.83 147.215C254.838 146.83 253.784 146.633 252.72 146.635V146.675ZM302.45 136.535C301.389 136.519 300.334 136.702 299.34 137.075C300.332 137.455 301.388 137.642 302.45 137.625H302.86C303.11 137.295 303.39 136.955 303.65 136.625C303.21 136.525 302.85 136.505 302.45 136.495V136.535ZM280.79 144.665C280.07 146.669 280.07 148.861 280.79 150.865C281.166 149.875 281.352 148.823 281.34 147.765C281.362 146.692 281.175 145.626 280.79 144.625V144.665ZM306.28 111.495C305.902 112.484 305.718 113.536 305.74 114.595C305.724 115.653 305.907 116.704 306.28 117.695C306.66 116.706 306.847 115.654 306.83 114.595C306.859 113.522 306.672 112.454 306.28 111.455V111.495ZM318.37 94.9548C317.615 95.6958 317.005 96.5707 316.57 97.5348C317.536 97.1035 318.412 96.4927 319.15 95.7348C319.908 94.9943 320.522 94.1195 320.96 93.1548C319.993 93.5896 319.115 94.1999 318.37 94.9548ZM285.64 122.955C284.875 123.689 284.26 124.565 283.83 125.535C284.799 125.099 285.674 124.481 286.41 123.715C287.175 122.981 287.79 122.104 288.22 121.135C287.259 121.553 286.384 122.147 285.64 122.885V122.955ZM254.92 116.605L254.64 116.865C253.878 117.599 253.266 118.476 252.84 119.445C253.808 119.007 254.683 118.39 255.42 117.625C255.66 117.375 255.9 117.115 256.12 116.845L254.92 116.605ZM267.21 133.335C266.473 132.576 265.597 131.965 264.63 131.535C265.065 132.501 265.679 133.377 266.44 134.115C267.181 134.873 268.055 135.486 269.02 135.925C268.584 134.956 267.97 134.077 267.21 133.335ZM302.49 136.495C301.429 136.479 300.374 136.662 299.38 137.035C300.372 137.415 301.428 137.602 302.49 137.585H302.9C303.15 137.255 303.43 136.915 303.69 136.585C303.21 136.525 302.85 136.505 302.45 136.495H302.49ZM306.32 111.495C305.942 112.484 305.758 113.536 305.78 114.595C305.764 115.653 305.947 116.704 306.32 117.695C306.7 116.706 306.887 115.654 306.87 114.595C306.886 113.519 306.686 112.451 306.28 111.455L306.32 111.495Z" fill="white"/>
<path d="M258.53 134.665C259.05 131.975 261.04 121.215 261.33 118.505C261.33 118.505 261.27 118.445 261.25 118.505C260.47 121.035 258.19 131.595 257.67 134.285C256.493 139.629 255.608 145.034 255.02 150.475C255.02 150.565 255.16 150.625 255.19 150.475C256.66 145.305 257.51 139.955 258.53 134.665Z" fill="#263238"/>
<path opacity="0.1" d="M327.39 101.315C320.07 115.425 295.01 151.075 286.02 153.695C279.22 155.695 260.14 152.595 251.27 150.975L326.95 87.5948C331.21 87.9548 331.88 92.6448 327.39 101.315Z" fill="black"/>
<path d="M300.86 168.605L375.69 172.955C375.59 171.435 363.89 128.515 355.47 112.175C344.68 91.2249 339.89 88.0249 336.69 86.9549C332.59 85.5849 324.18 85.5949 321.69 89.5549C308.33 110.955 299.84 167.655 300.86 168.605Z" fill="#4083CA"/>
<path d="M319.1 94.2648C318.7 95.0648 318.31 95.8748 317.93 96.7348C318.356 96.4257 318.763 96.0918 319.15 95.7348C319.908 94.9943 320.522 94.1195 320.96 93.1548C320.286 93.4261 319.659 93.8006 319.1 94.2648ZM341.62 163.585C340.863 164.324 340.252 165.199 339.82 166.165C340.788 165.736 341.664 165.125 342.4 164.365C343.156 163.622 343.769 162.748 344.21 161.785C343.243 162.22 342.365 162.83 341.62 163.585ZM319.1 94.2648C318.7 95.0648 318.31 95.8748 317.93 96.7348C318.356 96.4257 318.763 96.0918 319.15 95.7348C319.908 94.9943 320.522 94.1195 320.96 93.1548C320.286 93.4261 319.659 93.8006 319.1 94.2648ZM363.05 130.815C362.863 130.71 362.669 130.616 362.47 130.535C362.75 131.191 363.127 131.802 363.59 132.345C363.41 131.835 363.21 131.315 363.05 130.815ZM346.6 96.1648C346.311 95.8759 346.007 95.6023 345.69 95.3448C345.187 94.9397 344.632 94.6034 344.04 94.3448C344.472 95.3129 345.087 96.1888 345.85 96.9248C346.409 97.4862 347.037 97.9736 347.72 98.3748C347.946 98.5146 348.184 98.635 348.43 98.7348C347.99 97.769 347.369 96.8966 346.6 96.1648ZM326.33 131.165C325.593 130.403 324.717 129.788 323.75 129.355C324.655 131.29 326.213 132.844 328.15 133.745C327.71 132.773 327.093 131.891 326.33 131.145V131.165ZM345.11 141.525C344.051 141.508 342.998 141.694 342.01 142.075C344.017 142.795 346.213 142.795 348.22 142.075C347.23 141.687 346.174 141.493 345.11 141.505V141.525ZM326.86 108.715C325.801 108.697 324.748 108.883 323.76 109.265C324.751 109.634 325.802 109.817 326.86 109.805C327.918 109.825 328.971 109.641 329.96 109.265C328.973 108.878 327.92 108.685 326.86 108.695V108.715ZM318.76 153.405C318.379 154.393 318.192 155.446 318.21 156.505C318.199 157.563 318.385 158.615 318.76 159.605C319.48 157.601 319.48 155.409 318.76 153.405ZM361.57 150.295C360.833 152.299 360.833 154.5 361.57 156.505C362.29 154.497 362.29 152.302 361.57 150.295ZM346.21 116.815C345.476 118.816 345.476 121.013 346.21 123.015C346.577 122.023 346.76 120.972 346.75 119.915C346.767 118.857 346.583 117.805 346.21 116.815Z" fill="white"/>
<path d="M349.21 96.4848C368.12 119.725 388.78 158.335 378.66 165.805C369.42 172.625 337.48 163.965 317.58 154.935C313.8 153.225 331.3 119.845 335.14 122.095C339.183 124.513 343.375 126.674 347.69 128.565C348.78 128.925 343.07 121.145 337.23 102.845C331.21 84.2548 338.37 83.1948 349.21 96.4848Z" fill="#FFC4C0"/>
<path d="M285.86 116.955C285.63 120.955 295.48 120.665 295.48 120.665C293.998 121.532 292.866 122.891 292.28 124.505C291.38 127.395 295.52 130.075 295.52 130.075C294.168 131.291 293.216 132.887 292.79 134.655C292.21 137.515 296.01 140.805 296.01 140.805C295.395 142.609 295.445 144.574 296.15 146.345C298.24 151.005 306.07 151.515 310.86 152.785C316.213 154.331 321.433 156.304 326.47 158.685L337.37 123.445C337.37 123.445 317.03 109.865 311.15 109.825C306.21 109.765 286.21 110.835 285.86 116.955Z" fill="#FFC4C0"/>
<path d="M295.56 120.525C300.84 119.285 306.4 119.315 311.77 119.405C311.89 119.405 311.88 119.595 311.77 119.595C306.44 119.445 300.93 120.715 295.6 120.775C295.571 120.773 295.543 120.761 295.521 120.741C295.5 120.721 295.486 120.695 295.481 120.666C295.476 120.637 295.482 120.607 295.496 120.581C295.51 120.556 295.533 120.536 295.56 120.525Z" fill="#263238"/>
<path d="M295.69 129.635C296.915 129.475 298.155 129.475 299.38 129.635C300.69 129.725 301.99 129.835 303.29 129.965C305.903 130.225 308.503 130.558 311.09 130.965C311.21 130.965 311.21 131.165 311.09 131.155C308.49 130.905 305.89 130.685 303.28 130.535C301.97 130.465 300.67 130.405 299.36 130.355C298.125 130.384 296.891 130.276 295.68 130.035C295.627 130.033 295.577 130.011 295.54 129.973C295.503 129.934 295.484 129.883 295.485 129.83C295.486 129.777 295.509 129.726 295.547 129.69C295.586 129.653 295.637 129.633 295.69 129.635Z" fill="#263238"/>
<path d="M296.12 140.775C297.228 140.639 298.351 140.693 299.44 140.935C300.63 141.085 301.82 141.215 303 141.345C305.38 141.605 307.75 141.865 310.13 142.045C310.15 142.051 310.167 142.064 310.18 142.081C310.192 142.098 310.199 142.119 310.199 142.14C310.199 142.161 310.192 142.181 310.18 142.198C310.167 142.216 310.15 142.228 310.13 142.235C307.71 142.065 305.28 141.925 302.87 141.735L299.3 141.445C298.208 141.452 297.124 141.262 296.1 140.885C296.05 140.865 296.07 140.785 296.12 140.775Z" fill="#263238"/>
<path d="M338.33 123.055L328.54 161.055C328.54 161.055 375.98 176.175 381.61 164.265C387.24 152.355 361.37 105.665 345.76 91.8948C330.15 78.1248 335.17 98.7748 335.58 100.425C337.4 107.755 346.65 127.125 346.65 127.125L338.33 123.055Z" fill="#4083CA"/>
<path d="M346.21 116.815C345.476 118.816 345.476 121.013 346.21 123.015C346.577 122.023 346.76 120.972 346.75 119.915C346.767 118.857 346.583 117.805 346.21 116.815ZM361.55 150.275C360.813 152.279 360.813 154.48 361.55 156.485C362.27 154.477 362.27 152.282 361.55 150.275ZM345.09 141.505C344.031 141.488 342.979 141.674 341.99 142.055C343.997 142.775 346.193 142.775 348.2 142.055C347.215 141.676 346.166 141.489 345.11 141.505H345.09ZM346.58 96.1649C345.848 95.4018 344.975 94.7873 344.01 94.3549C344.915 96.2866 346.468 97.84 348.4 98.7449C347.97 97.778 347.359 96.9022 346.6 96.1649H346.58ZM379.44 161.395C378.705 160.635 377.833 160.021 376.87 159.585C377.308 160.552 377.922 161.431 378.68 162.175C379.419 162.932 380.294 163.542 381.26 163.975C380.83 163.008 380.219 162.132 379.46 161.395H379.44ZM365.02 132.335C364.279 131.58 363.404 130.97 362.44 130.535C363.334 132.471 364.886 134.027 366.82 134.925C366.397 133.956 365.793 133.077 365.04 132.335H365.02ZM341.6 163.585C341.33 163.885 341.05 164.175 340.8 164.495L341.93 164.775C342.08 164.635 342.24 164.505 342.38 164.365C343.136 163.622 343.749 162.748 344.19 161.785C343.23 162.222 342.359 162.832 341.62 163.585H341.6Z" fill="white"/>
<path d="M339.21 123.125C344.63 125.365 358.72 133.355 361.74 136.495C361.75 136.503 361.759 136.513 361.766 136.524C361.773 136.535 361.777 136.548 361.779 136.561C361.781 136.574 361.78 136.587 361.777 136.6C361.774 136.612 361.768 136.624 361.76 136.635C361.752 136.645 361.742 136.654 361.731 136.661C361.72 136.668 361.707 136.672 361.694 136.674C361.681 136.676 361.668 136.675 361.655 136.672C361.642 136.668 361.63 136.663 361.62 136.655C358.62 134.285 341.18 124.565 338.44 123.345C338.44 123.345 338.29 123.685 338.23 123.775C338.17 123.865 338.06 123.775 338.07 123.695C338.129 123.379 338.213 123.068 338.32 122.765L339.21 123.125Z" fill="#263238"/>
<path d="M342.13 144.845C342.79 142.195 345.37 131.555 345.81 128.845C345.81 128.845 345.75 128.785 345.73 128.845C344.81 131.335 341.96 141.745 341.29 144.405C339.818 149.669 338.636 155.011 337.75 160.405C337.75 160.495 337.89 160.555 337.92 160.405C339.67 155.375 340.82 150.075 342.13 144.845Z" fill="#263238"/>
<path d="M347.02 127.385C345.69 124.035 344.02 120.825 342.53 117.535C341.04 114.245 339.53 111.005 338.13 107.685C338.13 107.635 338.04 107.685 338.06 107.685C338.88 109.955 339.69 112.195 340.58 114.425C340.29 114.065 340.03 113.695 339.77 113.315C339.29 112.635 338.86 111.925 338.44 111.215C338.44 111.215 338.35 111.215 338.36 111.215C338.683 112.004 339.092 112.755 339.58 113.455C339.953 113.972 340.357 114.466 340.79 114.935C341.16 115.845 341.53 116.745 341.93 117.645C343.4 120.965 344.5 124.235 346.46 127.305C346.53 127.465 347.07 127.495 347.02 127.385Z" fill="#263238"/>
<path d="M374.56 168.255C364.76 169.625 333.97 162.495 328.73 161.125C328.82 160.565 328.82 160.365 328.95 159.575C328.95 159.475 328.81 159.415 328.78 159.525C328.59 160.265 328 161.745 328.21 161.835C330.71 162.975 365.01 170.835 374.55 168.485C374.7 168.455 374.71 168.235 374.56 168.255Z" fill="#263238"/>
<path d="M298.54 153.755L258.47 158.285L244.49 102.425L284.57 97.8948L298.54 153.755Z" fill="#37474F"/>
<path d="M296.57 153.975L256.5 158.505L242.53 102.645L282.6 98.1249L296.57 153.975Z" fill="#455A64"/>
<path d="M264.01 126.425C264.235 127.467 264.835 128.391 265.696 129.022C266.556 129.652 267.618 129.945 268.68 129.845C269.18 129.797 269.665 129.644 270.101 129.395C270.538 129.146 270.916 128.806 271.211 128.4C271.506 127.993 271.712 127.528 271.813 127.036C271.915 126.543 271.91 126.035 271.8 125.545C271.573 124.501 270.971 123.577 270.109 122.947C269.246 122.317 268.183 122.025 267.12 122.125C266.62 122.172 266.136 122.325 265.7 122.575C265.263 122.824 264.886 123.163 264.591 123.571C264.297 123.978 264.093 124.443 263.992 124.935C263.892 125.427 263.898 125.935 264.01 126.425Z" fill="white"/>
<path d="M242.68 114.105C240.92 118.745 236.02 124.715 235.88 128.405C235.808 129.311 236.032 130.217 236.516 130.986C237.001 131.756 237.721 132.348 238.57 132.675C238.57 132.675 235.08 134.775 235.5 138.145C235.71 139.875 238.67 141.055 238.67 141.055C238.67 141.055 235.94 142.865 236.5 145.835C236.94 148.205 239.84 149.025 239.84 149.025C239.84 149.025 238.03 152.025 239.26 154.255C241.74 158.845 262.35 157.195 264.92 149.355C266.12 145.695 261.11 146.355 261.11 146.355C261.11 146.355 268.11 143.635 267.85 139.355C267.59 135.075 261.16 136.355 261.16 136.355C261.16 136.355 267.89 133.665 267.21 129.285C266.49 124.715 260.21 127.085 260.21 127.085C260.21 127.085 264.55 123.615 263.21 120.375C261.07 115.025 252.95 122.625 248.34 121.905L245.24 114.645L242.68 114.105Z" fill="#FFC4C0"/>
<path d="M239.07 120.955C240.36 116.415 234.46 111.415 235.07 106.895C235.89 100.785 243.12 106.135 245.32 114.735L245.86 121.735L239.07 120.955Z" fill="#FFC4C0"/>
<path d="M240.28 149.225C240.269 149.229 240.26 149.237 240.254 149.247C240.247 149.257 240.244 149.268 240.244 149.28C240.244 149.291 240.247 149.303 240.254 149.313C240.26 149.322 240.269 149.33 240.28 149.335C247.461 150.506 254.829 149.459 261.4 146.335C261.61 146.235 261.53 145.855 261.28 145.925C254.477 148.036 247.403 149.147 240.28 149.225Z" fill="#263238"/>
<path d="M238.57 141.105C238.49 141.105 238.49 141.235 238.57 141.255C245.69 142.355 254.57 141.095 261.41 136.585C261.64 136.425 261.7 136.055 261.41 136.215C256.67 138.875 245.21 141.145 238.57 141.105Z" fill="#263238"/>
<path d="M260.65 126.665C253.95 130.735 246.65 132.255 238.86 132.735C238.76 132.735 238.78 132.875 238.86 132.895C242.71 133.695 247.62 132.895 251.39 131.895C254.905 131.081 258.143 129.357 260.78 126.895C260.89 126.805 260.79 126.575 260.65 126.665Z" fill="#263238"/>
<path d="M325.92 101.955C330.3 102.125 336.22 94.3148 338.03 88.5748C338.15 88.1848 336.87 84.5748 335.52 80.0648C334.71 77.3348 333.88 74.2748 333.32 71.4348C333.2 70.8448 316.32 79.2848 316.32 79.2848C318.043 82.6361 319.35 86.1859 320.21 89.8548C320.279 90.2478 320.316 90.6458 320.32 91.0448C320.315 91.1114 320.315 91.1782 320.32 91.2448C320.4 93.5348 321.69 101.785 325.92 101.955Z" fill="#FFC4C0"/>
<path d="M332.21 71.7148C332.33 76.7148 331.63 88.8948 322.21 90.9848C321.602 91.1241 320.983 91.2111 320.36 91.2448C320.35 91.1785 320.35 91.1112 320.36 91.0448C320.36 90.6461 320.326 90.248 320.26 89.8548C319.397 86.1804 318.09 82.6244 316.37 79.2648C316.37 79.2648 328.5 73.1848 332.21 71.7148Z" fill="#263238"/>
<path d="M336.35 52.7148C338.18 59.1948 334.35 77.7148 329.71 81.7948C322.94 87.6748 312.05 88.0248 307.1 79.9248C302.31 72.0748 307.69 47.9948 312.89 44.3248C320.55 38.9548 333.65 43.1248 336.35 52.7148Z" fill="#FFC4C0"/>
<path d="M317.88 63.6948C317.88 63.6948 317.96 63.7848 317.95 63.8348C317.61 65.0648 317.44 66.5248 318.46 67.2048C318.46 67.2048 318.46 67.2948 318.46 67.2748C317.11 66.7548 317.36 64.8148 317.88 63.6948Z" fill="#263238"/>
<path d="M319.3 62.6648C321.3 62.9948 320.53 67.0348 318.65 66.7348C316.77 66.4348 317.6 62.3948 319.3 62.6648Z" fill="#263238"/>
<path d="M310.87 62.3449C310.87 62.2949 310.76 62.3449 310.75 62.4349C310.54 63.6949 310.09 65.1049 308.88 65.2949C308.88 65.2949 308.83 65.3649 308.88 65.3649C310.3 65.4449 310.88 63.5749 310.87 62.3449Z" fill="#263238"/>
<path d="M310.01 60.8149C308.01 60.2649 307.07 64.2749 308.91 64.8149C310.75 65.3549 311.67 61.2849 310.01 60.8149Z" fill="#263238"/>
<path d="M321.21 60.4148C320.708 60.1584 320.221 59.8747 319.75 59.5648C319.196 59.3355 318.733 58.9317 318.43 58.4148C318.372 58.2337 318.374 58.0389 318.436 57.8589C318.497 57.679 318.614 57.5233 318.77 57.4148C319.118 57.2505 319.503 57.1815 319.886 57.2149C320.269 57.2483 320.636 57.3829 320.95 57.6048C321.653 57.9621 322.198 58.568 322.48 59.3048C322.53 59.475 322.529 59.6558 322.48 59.8259C322.43 59.9959 322.333 60.1483 322.199 60.2649C322.066 60.3815 321.902 60.4576 321.726 60.4842C321.551 60.5107 321.372 60.4867 321.21 60.4148Z" fill="#263238"/>
<path d="M308.53 58.4249C309.089 58.4599 309.651 58.4599 310.21 58.4249C310.803 58.5227 311.411 58.4207 311.94 58.1349C312.082 58.0163 312.183 57.8549 312.226 57.6747C312.269 57.4945 312.253 57.3052 312.18 57.1349C311.97 56.8008 311.673 56.5308 311.32 56.3544C310.967 56.178 310.573 56.1021 310.18 56.1349C309.395 56.0738 308.615 56.3053 307.99 56.7849C307.848 56.9044 307.745 57.0638 307.694 57.2426C307.643 57.4213 307.647 57.6111 307.705 57.7876C307.763 57.964 307.873 58.1191 308.02 58.2326C308.167 58.3462 308.345 58.4132 308.53 58.4249Z" fill="#263238"/>
<path d="M317.09 71.7348C316.673 72.1655 316.172 72.5058 315.618 72.7346C315.064 72.9634 314.469 73.0758 313.87 73.0648C313.348 73.0591 312.829 72.9783 312.33 72.8248C312.23 72.8054 312.133 72.7752 312.04 72.7348L311.77 72.6348C311.706 72.6088 311.653 72.5622 311.618 72.5024C311.584 72.4427 311.57 72.3731 311.58 72.3048C311.574 72.2617 311.574 72.218 311.58 72.1748V72.0648C311.75 71.0648 312.13 69.6548 312.13 69.6548C311.75 69.7548 309.79 70.2048 309.92 69.7148C310.919 65.3899 312.356 61.1781 314.21 57.1448C314.224 57.123 314.246 57.1066 314.27 57.0979C314.295 57.0892 314.322 57.0888 314.346 57.0967C314.371 57.1046 314.393 57.1205 314.408 57.1418C314.423 57.1631 314.431 57.1887 314.43 57.2148C313.56 61.2148 311.98 65.0248 311.04 69.0348C311.736 68.8584 312.453 68.7843 313.17 68.8148C313.3 68.8848 312.38 71.6048 312.34 72.0448C313.113 72.2827 313.926 72.362 314.73 72.2778C315.534 72.1935 316.313 71.9476 317.02 71.5548C317.1 71.5448 317.21 71.6448 317.09 71.7348Z" fill="#263238"/>
<path d="M313.37 72.9548C313.835 73.6355 314.469 74.1835 315.21 74.5448C315.62 74.7308 316.078 74.7833 316.52 74.6948C317.52 74.4948 317.52 73.6248 317.42 72.8748C317.344 72.4747 317.22 72.0852 317.05 71.7148C315.987 72.5103 314.698 72.9448 313.37 72.9548Z" fill="#263238"/>
<path d="M315.21 74.5248C315.62 74.7108 316.078 74.7632 316.52 74.6748C317.52 74.4748 317.52 73.6048 317.42 72.8548C316.918 72.845 316.427 73.0044 316.026 73.3072C315.625 73.6101 315.338 74.0389 315.21 74.5248Z" fill="#FF9BBC"/>
<path d="M337.08 67.2248C332.16 67.4648 329.72 61.5548 330.97 56.8548C330.97 56.8548 317.86 58.3148 317.46 47.8548C316.51 49.2588 315.227 50.4068 313.727 51.1969C312.227 51.9871 310.555 52.3951 308.86 52.3848L307.32 56.2149C305.99 55.8049 304.64 51.9648 307.98 49.0448C307.98 49.0448 308.32 43.8148 312.24 40.7548C313.302 39.8778 314.593 39.3256 315.961 39.1642C317.328 39.0028 318.713 39.2391 319.95 39.8449C322.26 38.2481 325.099 37.61 327.87 38.0648C329.317 38.3288 330.68 38.9348 331.846 39.8324C333.011 40.73 333.945 41.8931 334.57 43.2248C334.57 43.2248 341.01 44.5948 342.02 49.2248C342.331 50.5312 342.364 51.8885 342.116 53.2083C341.868 54.5281 341.345 55.7808 340.58 56.8848C340.58 56.8848 342.17 58.7248 341.26 62.6348C340.68 65.0948 338.56 67.1548 337.08 67.2248Z" fill="#263238"/>
<path d="M317.77 46.8848C317.65 47.7326 317.62 48.5907 317.68 49.4448C317.717 50.2898 317.861 51.1266 318.11 51.9348C318.57 53.5375 319.621 54.9061 321.05 55.7648C322.521 56.5739 324.162 57.0228 325.84 57.0748C326.69 57.0748 327.55 57.1248 328.4 57.0748C329.25 57.0248 330.11 56.9248 330.97 56.8648C330.13 57.0548 329.28 57.2048 328.43 57.3748C327.58 57.5448 326.7 57.4948 325.83 57.5548C324.054 57.569 322.304 57.1357 320.74 56.2948C319.2 55.3462 318.094 53.8308 317.66 52.0748C317.254 50.3637 317.292 48.5772 317.77 46.8848Z" fill="#263238"/>
<path d="M310.9 52.8048C312.338 52.3486 313.69 51.6558 314.9 50.7548C315.488 50.3072 316.012 49.7825 316.46 49.1948C316.914 48.5731 317.296 47.9022 317.6 47.1948C317.513 47.9803 317.257 48.7377 316.85 49.4148C316.448 50.1077 315.91 50.713 315.27 51.1948C314.638 51.6752 313.937 52.0563 313.19 52.3248C312.459 52.6122 311.685 52.7744 310.9 52.8048Z" fill="#263238"/>
<path d="M332.05 67.8048C332.05 67.8048 336.51 61.9548 339.17 63.5748C341.83 65.1948 338.32 73.7748 335.06 74.8348C334.653 74.9991 334.216 75.0793 333.777 75.0706C333.337 75.0619 332.904 74.9645 332.504 74.7843C332.103 74.604 331.743 74.3446 331.445 74.0216C331.147 73.6986 330.917 73.3188 330.77 72.9048L332.05 67.8048Z" fill="#FFC4C0"/>
<path d="M338.1 66.0048V66.0948C335.81 66.9148 334.54 68.9448 333.62 71.0948C333.761 70.8754 333.948 70.6889 334.167 70.5483C334.387 70.4076 334.634 70.3161 334.893 70.2801C335.151 70.244 335.414 70.2641 335.664 70.3392C335.914 70.4142 336.144 70.5424 336.34 70.7148C336.39 70.7148 336.34 70.8448 336.27 70.8348C335.882 70.692 335.459 70.673 335.06 70.7805C334.66 70.8879 334.304 71.1165 334.04 71.4348C333.6 71.975 333.221 72.5619 332.91 73.1848C332.79 73.3748 332.43 73.2548 332.52 73.0248V72.9748C332.62 70.0848 335.01 66.1648 338.1 66.0048Z" fill="#263238"/>
<g opacity="0.2">
<path d="M324.97 69.5348C324.962 69.5781 324.964 69.6226 324.975 69.6652C324.986 69.7078 325.006 69.7474 325.034 69.7812C325.063 69.815 325.098 69.8423 325.138 69.861C325.177 69.8796 325.221 69.8893 325.265 69.8893C325.309 69.8893 325.352 69.8796 325.392 69.861C325.432 69.8423 325.467 69.815 325.496 69.7812C325.524 69.7474 325.544 69.7078 325.555 69.6652C325.566 69.6226 325.568 69.5781 325.56 69.5348C325.559 69.4954 325.55 69.4566 325.533 69.4207C325.517 69.3848 325.494 69.3525 325.465 69.3256C325.436 69.2986 325.402 69.2776 325.366 69.2638C325.329 69.2499 325.289 69.2435 325.25 69.2448C325.176 69.2497 325.106 69.2821 325.054 69.3357C325.002 69.3894 324.972 69.4603 324.97 69.5348Z" fill="black"/>
<path d="M318.73 69.5148C318.735 69.5935 318.77 69.6673 318.828 69.7212C318.885 69.7751 318.961 69.805 319.04 69.8048C319.079 69.8023 319.118 69.7919 319.153 69.7745C319.189 69.757 319.22 69.7327 319.246 69.703C319.272 69.6732 319.292 69.6387 319.305 69.6012C319.318 69.5638 319.323 69.5242 319.32 69.4848C319.319 69.4458 319.31 69.4075 319.293 69.3721C319.277 69.3367 319.253 69.305 319.225 69.2789C319.196 69.2528 319.162 69.2327 319.125 69.22C319.088 69.2073 319.049 69.2021 319.01 69.2048C318.932 69.21 318.859 69.2452 318.807 69.3031C318.755 69.3609 318.727 69.4369 318.73 69.5148Z" fill="black"/>
<path d="M321.02 71.6048C321.012 71.6481 321.014 71.6926 321.025 71.7352C321.036 71.7778 321.056 71.8174 321.084 71.8512C321.113 71.885 321.148 71.9123 321.188 71.931C321.228 71.9496 321.271 71.9593 321.315 71.9593C321.359 71.9593 321.403 71.9496 321.442 71.931C321.482 71.9123 321.517 71.885 321.546 71.8512C321.574 71.8174 321.594 71.7778 321.605 71.7352C321.616 71.6926 321.618 71.6481 321.61 71.6048C321.61 71.565 321.602 71.5256 321.586 71.489C321.57 71.4524 321.547 71.4195 321.518 71.3923C321.489 71.3651 321.455 71.3442 321.417 71.3309C321.38 71.3175 321.34 71.312 321.3 71.3148C321.226 71.3197 321.156 71.3521 321.104 71.4057C321.052 71.4594 321.022 71.5303 321.02 71.6048Z" fill="black"/>
<path d="M324.7 67.0848C324.701 67.1242 324.71 67.163 324.727 67.1989C324.743 67.2348 324.766 67.2671 324.795 67.2941C324.824 67.321 324.858 67.342 324.894 67.3558C324.931 67.3697 324.971 67.3761 325.01 67.3748C325.069 67.3728 325.127 67.3533 325.175 67.3187C325.223 67.284 325.26 67.2359 325.281 67.1804C325.302 67.1249 325.305 67.0644 325.292 67.0066C325.278 66.9489 325.248 66.8964 325.205 66.8559C325.161 66.8154 325.107 66.7886 325.049 66.7789C324.99 66.7693 324.93 66.7772 324.876 66.8017C324.822 66.8262 324.776 66.8662 324.745 66.9166C324.714 66.967 324.698 67.0255 324.7 67.0848Z" fill="black"/>
<path d="M321.83 68.8948C321.843 68.9637 321.879 69.026 321.933 69.0709C321.987 69.1157 322.055 69.1402 322.125 69.1402C322.195 69.1402 322.263 69.1157 322.317 69.0709C322.371 69.026 322.407 68.9637 322.42 68.8948C322.419 68.8554 322.41 68.8166 322.393 68.7807C322.377 68.7448 322.354 68.7125 322.325 68.6855C322.296 68.6586 322.262 68.6376 322.226 68.6238C322.189 68.6099 322.149 68.6035 322.11 68.6048C322.036 68.6097 321.966 68.6422 321.914 68.6958C321.862 68.7494 321.832 68.8203 321.83 68.8948Z" fill="black"/>
<path d="M306.33 65.2448C306.331 65.2842 306.34 65.323 306.357 65.3589C306.373 65.3948 306.396 65.4271 306.425 65.4541C306.454 65.481 306.488 65.502 306.524 65.5158C306.561 65.5297 306.601 65.5361 306.64 65.5348C306.718 65.5296 306.791 65.4944 306.843 65.4366C306.895 65.3787 306.923 65.3027 306.92 65.2248C306.915 65.1461 306.88 65.0723 306.822 65.0184C306.765 64.9646 306.689 64.9347 306.61 64.9348C306.532 64.94 306.459 64.9752 306.407 65.0331C306.355 65.0909 306.327 65.1669 306.33 65.2448Z" fill="black"/>
<path d="M308.72 66.8348C308.725 66.9135 308.76 66.9873 308.818 67.0412C308.875 67.0951 308.951 67.125 309.03 67.1248C309.108 67.1197 309.181 67.0844 309.233 67.0266C309.285 66.9687 309.313 66.8927 309.31 66.8148C309.309 66.7754 309.3 66.7367 309.283 66.7008C309.267 66.6649 309.244 66.6325 309.215 66.6056C309.186 66.5786 309.153 66.5576 309.116 66.5438C309.079 66.5299 309.039 66.5235 309 66.5248C308.922 66.53 308.849 66.5652 308.797 66.6231C308.745 66.681 308.717 66.7569 308.72 66.8348Z" fill="black"/>
<path d="M308.21 68.8248C308.215 68.9026 308.25 68.9754 308.308 69.0277C308.366 69.0799 308.442 69.1076 308.52 69.1048C308.559 69.1035 308.598 69.0945 308.634 69.0782C308.67 69.0619 308.702 69.0387 308.729 69.01C308.756 68.9812 308.777 68.9473 308.791 68.9104C308.805 68.8735 308.811 68.8342 308.81 68.7948C308.805 68.717 308.77 68.6443 308.712 68.592C308.654 68.5397 308.578 68.5121 308.5 68.5148C308.46 68.5147 308.421 68.5229 308.384 68.5387C308.348 68.5545 308.315 68.5776 308.288 68.6067C308.26 68.6358 308.239 68.6702 308.226 68.7077C308.213 68.7452 308.207 68.7851 308.21 68.8248Z" fill="black"/>
<path d="M306.13 67.5448C306.135 67.6235 306.17 67.6973 306.228 67.7512C306.285 67.8051 306.361 67.835 306.44 67.8348C306.518 67.8296 306.591 67.7944 306.643 67.7365C306.695 67.6787 306.723 67.6027 306.72 67.5248C306.719 67.4854 306.71 67.4466 306.693 67.4107C306.677 67.3748 306.654 67.3425 306.625 67.3155C306.596 67.2886 306.562 67.2676 306.526 67.2537C306.489 67.2399 306.449 67.2335 306.41 67.2348C306.332 67.2399 306.259 67.2752 306.207 67.3331C306.155 67.3909 306.127 67.4669 306.13 67.5448Z" fill="black"/>
</g>
<path d="M397.21 24.8448C397.211 29.417 395.941 33.8996 393.543 37.7921C391.144 41.6846 387.711 44.834 383.626 46.8887C379.542 48.9435 374.967 49.8226 370.412 49.4282C365.856 49.0337 361.5 47.3811 357.83 44.6548L345.75 47.7448L350.75 36.4848C348.995 33.1779 348.015 29.5149 347.885 25.7732C347.755 22.0315 348.479 18.3093 350.001 14.8887C351.523 11.468 353.803 8.43871 356.67 6.03018C359.536 3.62165 362.913 1.89712 366.545 0.987243C370.176 0.0773631 373.967 0.00599945 377.631 0.778579C381.294 1.55116 384.734 3.14741 387.689 5.44638C390.644 7.74535 393.037 10.6867 394.686 14.0477C396.336 17.4086 397.199 21.1009 397.21 24.8448Z" fill="white"/>
<path d="M397.21 24.8448C397.22 29.4325 395.957 33.9329 393.56 37.8448C392.953 38.8165 392.285 39.7483 391.56 40.6348C390.825 41.5063 390.037 42.3312 389.2 43.1048C387.536 44.6629 385.661 45.9791 383.63 47.0148C381.598 48.0632 379.431 48.827 377.19 49.2848C376.065 49.5047 374.925 49.645 373.78 49.7048C372.638 49.7948 371.492 49.7948 370.35 49.7048C365.734 49.34 361.312 47.6951 357.58 44.9548L357.88 45.0148L345.82 48.1748L344.94 48.4048L345.31 47.5748L350.31 36.3048V36.7248C348.511 33.3597 347.507 29.6275 347.373 25.8141C347.24 22.0008 347.981 18.2075 349.54 14.7248C351.108 11.2474 353.443 8.17042 356.37 5.72482C359.297 3.31702 362.731 1.6022 366.414 0.708648C370.097 -0.184907 373.935 -0.23408 377.64 0.564819C381.314 1.39541 384.755 3.03904 387.71 5.37482C390.659 7.69342 393.046 10.6493 394.691 14.0211C396.337 17.3928 397.198 21.0931 397.21 24.8448ZM397.21 24.8448C397.217 21.1077 396.365 17.419 394.72 14.0632C393.075 10.7074 390.682 7.77423 387.724 5.48996C384.766 3.20569 381.323 1.63135 377.661 0.888381C373.998 0.145416 370.214 0.253678 366.6 1.20482C363.019 2.1275 359.698 3.85847 356.89 6.26482C354.113 8.68627 351.895 11.682 350.39 15.0448C348.922 18.4141 348.238 22.0727 348.39 25.7448C348.538 29.4141 349.501 33.0044 351.21 36.2548L351.32 36.4648L351.23 36.6848L346.11 47.9548L345.6 47.3448L357.71 44.3448L357.87 44.2948L358.01 44.4048C361.611 47.1261 365.897 48.7946 370.39 49.2248C371.51 49.3347 372.637 49.3548 373.76 49.2848C374.887 49.2446 376.01 49.1243 377.12 48.9248C379.343 48.5183 381.497 47.8013 383.52 46.7948C385.564 45.7999 387.448 44.5056 389.11 42.9548C389.944 42.1923 390.732 41.3809 391.47 40.5248C392.193 39.6433 392.861 38.7182 393.47 37.7548C395.886 33.8799 397.181 29.4111 397.21 24.8448Z" fill="#263238"/>
<path d="M371.78 11.2948C370.458 12.6162 369.557 14.3 369.192 16.1333C368.827 17.9666 369.014 19.867 369.729 21.5941C370.444 23.3212 371.655 24.7975 373.209 25.8361C374.763 26.8748 376.591 27.4291 378.46 27.4291C380.329 27.4291 382.157 26.8748 383.711 25.8361C385.265 24.7975 386.476 23.3212 387.191 21.5941C387.906 19.867 388.093 17.9666 387.728 16.1333C387.363 14.3 386.462 12.6162 385.14 11.2948C383.367 9.52636 380.964 8.53326 378.46 8.53326C375.956 8.53326 373.553 9.52636 371.78 11.2948ZM383.21 15.7148C382.878 16.0458 382.429 16.2317 381.96 16.2317C381.491 16.2317 381.042 16.0458 380.71 15.7148C380.384 15.3805 380.201 14.9319 380.201 14.4648C380.201 13.9977 380.384 13.5491 380.71 13.2148C381.042 12.8838 381.491 12.698 381.96 12.698C382.429 12.698 382.878 12.8838 383.21 13.2148C383.376 13.3778 383.508 13.5722 383.599 13.7869C383.689 14.0015 383.735 14.232 383.735 14.4648C383.735 14.6976 383.689 14.9281 383.599 15.1428C383.508 15.3574 383.376 15.5519 383.21 15.7148Z" fill="#4083CA"/>
<path d="M370.491 19.8232L368.476 21.8385L374.606 27.9691L376.621 25.9538L370.491 19.8232Z" fill="#4083CA"/>
<path d="M369.45 22.8048L373.61 26.9648L372.59 27.9848L370.87 27.4548L371.4 29.1748L369.71 30.8648L367.43 30.3848L367.9 32.6648L367.52 33.0548L365.8 32.5248L366.33 34.2448L364.61 33.7148L365.14 35.4348L363.8 36.7648L361.52 36.2948L361.99 38.5748L360.82 39.7448L356.19 40.2148L356.66 35.5948L369.45 22.8048Z" fill="#EBEBEB"/>
<path d="M370.697 25.1829L358.782 37.0977L359.072 37.3876L370.987 25.4728L370.697 25.1829Z" fill="#DBDBDB"/>
<path opacity="0.1" d="M386.67 17.9548C386.68 20.1348 385.828 22.2304 384.3 23.7848C382.75 25.3631 380.639 26.2629 378.427 26.2873C376.215 26.3116 374.084 25.4585 372.5 23.9148C371.707 23.1382 371.076 22.211 370.646 21.1876C370.216 20.1641 369.994 19.0651 369.994 17.9548C369.994 16.8446 370.216 15.7455 370.646 14.7221C371.076 13.6987 371.707 12.7714 372.5 11.9948C374.08 10.448 376.209 9.5917 378.42 9.6142C380.631 9.6367 382.742 10.5362 384.29 12.1148C385.826 13.6689 386.682 15.7696 386.67 17.9548ZM386.67 17.9548C386.673 16.3475 386.196 14.7759 385.301 13.4409C384.406 12.1059 383.133 11.0682 381.645 10.4606C380.157 9.85291 378.521 9.70285 376.948 10.0296C375.374 10.3563 373.933 11.145 372.81 12.2948C371.398 13.828 370.632 15.8471 370.672 17.931C370.712 20.015 371.555 22.003 373.025 23.4808C374.495 24.9585 376.479 25.8118 378.563 25.8629C380.646 25.9139 382.669 25.1588 384.21 23.7548C384.983 22.9983 385.598 22.0963 386.02 21.1009C386.442 20.1054 386.663 19.0361 386.67 17.9548Z" fill="black"/>
</svg>
